<?xml version="1.0" encoding="iso-8859-1"?>
<!-- Uploaded to: SVG Repo, www.svgrepo.com, Generator: SVG Repo Mixer Tools -->
<svg height="800px" width="800px" version="1.1" id="Layer_1" xmlns="http://www.w3.org/2000/svg" xmlns:xlink="http://www.w3.org/1999/xlink" 
	 viewBox="0 0 503.467 503.467" xml:space="preserve">
<g transform="translate(1 1)">
	<path style="fill:#AAB1BA;" d="M498.2,184.174h-1.707l-65.707,50.347v-0.853V106.52l0,0l42.667,33.28
		C487.96,149.187,496.493,165.4,498.2,184.174"/>
	<path style="fill:#FFE079;" d="M3.267,191c0-2.56,0-5.12,0.853-7.68l0,0l67.413,51.2l153.6,116.053c0,0,12.8,11.093,25.6,11.093
		s25.6-11.093,25.6-11.093l153.6-116.907l65.707-50.347h1.707c0,2.56,0,4.267,0,6.827v273.067c0,18.773-14.507,34.133-34.133,34.133
		H36.547c-18.773,0-34.133-14.507-34.133-34.133V191H3.267z"/>
	<path style="fill:#F2EDDA;" d="M429.933,233.667L429.933,233.667l-153.6,117.76c0,0-12.8,11.093-25.6,11.093
		s-25.6-11.093-25.6-11.093l-153.6-116.053v-0.853V115.907V37.4c0-17.92,15.36-34.133,34.133-34.133H395.8
		c17.92,0,34.133,15.36,34.133,34.133v69.12V233.667z"/>
	<path style="fill:#FF7474;" d="M173.933,105.667V101.4c9.387-8.533,21.333-12.8,34.133-12.8c17.92,0,33.28,9.387,42.667,23.04
		C260.12,97.987,275.48,88.6,293.4,88.6c28.16,0,51.2,23.04,51.2,51.2s-34.133,59.733-34.133,59.733l-59.733,59.733L191,199.534
		c0,0-34.133-31.573-34.133-59.733c0-12.8,5.12-24.747,12.8-34.133H173.933z"/>
	<path style="fill:#AAB1BA;" d="M71.533,115.054v118.613v0.853L4.12,183.32l0,0c1.707-17.067,10.24-34.987,24.747-43.52
		L71.533,115.054L71.533,115.054z"/>
</g>
<path style="fill:#51565F;" d="M465.067,503.467H38.4c-21.333,0-38.4-17.067-38.4-38.4V192c0-23.04,11.093-45.227,27.307-54.613
	l8.533-5.973c1.707-1.707,4.267-0.853,5.973,0.853c1.707,1.707,0.853,4.267-0.853,5.973l-8.533,5.973
	c-16.213,9.387-23.893,30.72-23.893,47.787v273.067c0,17.067,12.8,29.867,29.867,29.867h426.667c17.067,0,29.867-12.8,29.867-29.867
	V192.001c0-21.333-8.533-38.4-23.893-47.787l-8.533-5.973c-1.707-1.707-2.56-4.267-0.853-5.973c1.707-1.707,4.267-2.56,5.973-0.853
	l8.533,5.973c17.067,11.093,27.307,30.72,27.307,54.613v273.067C503.467,486.4,486.4,503.467,465.067,503.467z M465.067,452.267
	c-0.853,0-1.707,0-2.56-0.853L343.04,357.547c-1.707-1.707-2.56-4.267-0.853-5.973s4.267-2.56,5.973-0.853l119.467,93.867
	c1.707,1.707,2.56,4.267,0.853,5.973C467.627,451.414,465.92,452.267,465.067,452.267z M38.4,452.267
	c-0.853,0-2.56-0.853-3.413-1.707c-1.707-1.707-0.853-4.267,0.853-5.973l119.467-93.867c1.707-1.707,4.267-0.853,5.973,0.853
	s0.853,4.267-0.853,5.973L40.96,451.414C40.107,452.267,39.253,452.267,38.4,452.267z M251.733,366.934
	c-13.653,0-28.16-11.947-28.16-11.947L36.693,212.48c-1.707-1.707-2.56-4.267-0.853-5.973c1.707-1.707,4.267-2.56,5.973-0.853
	l27.307,20.48V38.4c0-20.48,17.92-38.4,38.4-38.4h290.133c20.48,0,38.4,17.92,38.4,38.4v187.733l27.307-20.48
	c1.707-1.707,4.267-0.853,5.973,0.853c1.707,1.707,0.853,4.267-0.853,5.973L280.747,354.987
	C279.04,355.84,265.387,366.934,251.733,366.934z M76.8,232.96l151.893,115.2c0,0,11.947,10.24,23.04,10.24s23.04-9.387,23.04-9.387
	L426.667,232.96V38.4c0-16.213-13.653-29.867-29.867-29.867H106.667C90.453,8.534,76.8,22.187,76.8,38.4V232.96z M251.733,264.534
	c-0.853,0-2.56,0-3.413-0.853l-59.733-59.733c-1.707-0.853-34.987-33.28-34.987-63.147c0-2.56,1.707-4.267,4.267-4.267
	c2.56,0,4.267,1.707,4.267,4.267c0,26.453,32.427,56.32,32.427,56.32l57.173,57.173l56.32-56.32c0.853,0,33.28-30.72,33.28-56.32
	S320,94.72,294.4,94.72c-15.36,0-30.72,7.68-39.253,21.333c-1.707,2.56-5.12,2.56-6.827,0c-8.533-12.8-23.04-21.333-39.253-21.333
	c-2.56,0-4.267-1.707-4.267-4.267s1.707-4.267,4.267-4.267c16.213,0,32.427,7.68,42.667,19.627
	c10.24-12.8,26.453-19.627,42.667-19.627c30.72,0,55.467,24.747,55.467,55.467c0,29.867-34.133,61.44-35.84,63.147l-17.92,17.92
	l17.92,17.92c1.707,1.707,1.707,4.267,0,5.973s-4.267,1.707-5.973,0l-17.92-17.92l-34.987,34.987
	C254.293,264.534,252.587,264.534,251.733,264.534z M209.067,145.067c-0.853,0-2.56,0-3.413-0.853l-33.28-33.28h-32.427
	c-2.56,0-4.267-1.707-4.267-4.267c0-2.56,1.707-4.267,4.267-4.267h29.867V72.534c0-2.56,1.707-4.267,4.267-4.267
	c2.56,0,4.267,1.707,4.267,4.267v32.427l33.28,33.28c1.707,1.707,1.707,4.267,0,5.973
	C211.627,145.067,209.92,145.067,209.067,145.067z"/>
</svg>