<?xml version="1.0" encoding="iso-8859-1"?>
<!-- Uploaded to: SVG Repo, www.svgrepo.com, Generator: SVG Repo Mixer Tools -->
<svg height="800px" width="800px" version="1.1" id="Layer_1" xmlns="http://www.w3.org/2000/svg" xmlns:xlink="http://www.w3.org/1999/xlink" 
	 viewBox="0 0 505.173 505.173" xml:space="preserve">
<g transform="translate(1 1)">
	<path style="fill:#F2EDDA;" d="M267.8,110.253c-11.947,11.947-22.187,25.6-29.013,40.96l-1.707-0.853l-79.36-78.507
		c-23.04-23.04-61.44-23.04-84.48,0c-23.04,23.04-23.04,61.44,0,84.48l80.213,81.067c-16.213,6.827-29.867,17.067-41.813,29.867l0,0
		l-74.24-74.24c-43.52-43.52-43.52-113.493,0-157.013s113.493-43.52,157.013,0L267.8,110.253L267.8,110.253z"/>
	<path style="fill:#FF7474;" d="M152.6,237.4c17.067-7.68,35.84-11.947,56.32-11.947c5.973,0,11.947,0.853,18.773,1.707
		c-0.853-5.973-1.707-11.947-1.707-18.773c0-20.48,4.267-39.253,11.947-57.173c6.827-15.36,17.067-29.867,29.013-40.96
		c24.747-23.893,58.027-38.4,94.72-38.4c75.093,0,136.533,61.44,136.533,136.533v221.867c0,37.547-30.72,68.267-68.267,68.267
		h-102.4v-85.333H137.24c-7.68-29.013-34.133-51.2-65.707-51.2c0-10.24,4.267-33.28,4.267-33.28
		c5.973-23.893,17.92-44.373,34.133-61.44C122.733,254.466,137.24,245.08,152.6,237.4"/>
	<path style="fill:#FFE079;" d="M106.52,430.253c0-18.773-15.36-34.133-34.133-34.133s-34.133,15.36-34.133,34.133
		s15.36,34.133,34.133,34.133S106.52,449.027,106.52,430.253L106.52,430.253z M294.253,498.52H260.12v-51.2H138.093
		c-1.707,5.973-4.267,11.947-6.827,17.067c-11.947,20.48-34.133,34.133-58.88,34.133c-37.547,0-68.267-30.72-68.267-68.267
		s30.72-68.267,68.267-68.267c31.573,0,58.88,21.333,65.707,51.2h190.293v85.333H294.253z"/>
	<path style="fill:#FFD4DC;" d="M311.32,310.787c0,9.387-7.68,17.067-17.067,17.067s-17.067-7.68-17.067-17.067
		s7.68-17.067,17.067-17.067S311.32,301.4,311.32,310.787"/>
	<path style="fill:#FF7474;" d="M260.12,447.32v51.2h-34.133H208.92c-18.773,0-36.693-4.267-52.907-11.093
		c0,0-13.653-7.68-23.04-22.187l-1.707-0.853c3.413-5.12,5.973-11.093,6.827-17.067H260.12z"/>
</g>
<path style="fill:#51565F;" d="M431.787,503.787H363.52c-2.56,0-4.267-1.707-4.267-4.267c0-2.56,1.707-4.267,4.267-4.267h68.267
	c34.987,0,64-29.013,64-64V209.387c0-72.533-59.733-132.267-132.267-132.267s-132.267,59.733-132.267,132.267
	c0,5.12,0.853,11.093,1.707,17.92c0,1.707,0,2.56-0.853,3.413c-0.853,0.853-2.56,1.707-3.413,0.853
	c-6.827-0.853-12.8-1.707-17.92-1.707c-60.587,0-113.493,40.96-128,99.84c-0.853,2.56-2.56,3.413-5.12,3.413
	c-2.56-0.853-3.413-2.56-3.413-5.12c15.36-62.293,71.68-106.667,136.533-106.667c4.267,0,8.533,0,13.653,0.853
	c-0.853-5.12-0.853-9.387-0.853-13.653c0-77.653,63.147-140.8,140.8-140.8s140.8,63.147,140.8,140.8V430.4
	C504.32,471.36,471.893,503.787,431.787,503.787z M295.253,503.787c-2.56,0-4.267-1.707-4.267-4.267v-51.2
	c0-2.56,1.707-4.267,4.267-4.267c2.56,0,4.267,1.707,4.267,4.267v51.2C299.52,502.08,297.813,503.787,295.253,503.787z
	 M226.987,503.787H209.92c-18.773,0-37.547-3.413-54.613-11.093c-2.56-0.853-3.413-3.413-2.56-5.973
	c0.853-2.56,3.413-3.413,5.973-2.56c16.213,6.827,33.28,10.24,51.2,10.24h17.067c2.56,0,4.267,1.707,4.267,4.267
	C231.254,501.227,229.547,503.787,226.987,503.787z M73.387,503.787c-40.107,0-72.533-32.427-72.533-72.533
	S33.28,358.72,73.387,358.72c31.573,0,59.733,20.48,69.12,51.2h186.88c2.56,0,4.267,1.707,4.267,4.267v68.267
	c0,2.56-1.707,4.267-4.267,4.267s-4.267-1.707-4.267-4.267v-64H139.093c-1.707,0-3.413-1.707-4.267-3.413
	c-7.68-28.16-32.427-47.787-62.293-47.787c-34.987,0-64,29.013-64,64s29.013,64,64,64c29.013,0,54.613-19.627,62.293-47.787
	c0.853-1.707,2.56-3.413,4.267-3.413H261.12c2.56,0,4.267,1.707,4.267,4.267v34.133c0,2.56-1.707,4.267-4.267,4.267
	s-4.267-1.707-4.267-4.267v-29.867H142.507C133.12,483.307,104.96,503.787,73.387,503.787z M73.387,469.653
	c-21.333,0-38.4-17.067-38.4-38.4c0-21.333,17.067-38.4,38.4-38.4s38.4,17.067,38.4,38.4
	C111.787,452.587,94.72,469.653,73.387,469.653z M73.387,401.387c-16.213,0-29.867,13.653-29.867,29.867
	s13.653,29.867,29.867,29.867s29.867-13.653,29.867-29.867S89.6,401.387,73.387,401.387z M346.453,367.253
	c-0.853,0-2.56,0-3.413-0.853l-36.693-36.693c-3.413,2.56-7.68,3.413-11.947,3.413c-11.947,0-21.333-9.387-21.333-21.333
	c0-11.947,9.387-21.333,21.333-21.333s21.333,9.387,21.333,21.333c0,4.267-1.707,8.533-3.413,11.947l36.693,36.693
	c0.853,0.853,0.853,1.707,0.853,3.413s0,2.56-0.853,3.413C348.16,368.106,347.307,367.253,346.453,367.253z M295.253,298.987
	c-6.827,0-12.8,5.973-12.8,12.8c0,6.827,5.973,12.8,12.8,12.8c6.827,0,12.8-5.973,12.8-12.8
	C308.053,304.96,302.08,298.987,295.253,298.987z M88.747,249.493c-0.853,0-2.56,0-3.413-0.853l-51.2-51.2
	C12.8,176.107,0,147.093,0,116.373S11.947,56.64,34.133,35.307c45.227-45.227,117.76-45.227,162.987,0l51.2,51.2
	c1.707,1.707,1.707,4.267,0,5.973c-1.707,1.707-4.267,1.707-5.973,0l-51.2-51.2c-41.813-41.813-109.227-41.813-151.04,0
	C19.627,61.76,8.533,88.213,8.533,116.373s11.093,55.467,31.573,75.093l51.2,51.2c1.707,1.707,1.707,4.267,0,5.973
	C91.307,248.64,89.6,249.493,88.747,249.493z M128.853,217.92c-0.853,0-2.56,0-3.413-0.853L70.827,161.6
	c-24.747-24.747-24.747-65.707,0-90.453s65.707-24.747,90.453,0l56.32,55.467c1.707,1.707,1.707,4.267,0,5.973
	c-1.707,1.707-4.267,1.707-5.973,0l-56.32-55.467c-21.333-21.333-57.173-21.333-78.507,0s-21.333,57.173,0,78.507l54.613,55.467
	c1.707,1.707,1.707,4.267,0,5.973C130.56,217.066,129.707,217.92,128.853,217.92z"/>
</svg>